<svg width="966" height="305" viewBox="0 0 966 305" fill="none" xmlns="http://www.w3.org/2000/svg">
<g clip-path="url(#clip0_2_2)">
<path d="M606.258 147.444C606.258 147.444 606.217 147.758 605.83 148.181C605.307 150.404 605.058 152.204 605.052 154.005C605.017 166.267 605.092 178.53 604.96 190.791C604.942 192.414 604.43 194.641 603.309 195.519C600.754 197.521 592.793 195.601 590.606 192.917C590.476 175.246 590.346 157.576 590.489 139.106C590.833 137.496 590.96 136.686 590.966 135.875C591.03 126.06 592.393 125.064 602.025 127.818C602.338 127.908 602.668 127.938 602.99 127.995C602.99 127.995 603.007 128.006 602.983 128.155C602.972 128.497 603.042 128.668 603.168 128.815C603.355 129.29 603.541 129.765 603.529 130.869C603.546 132.653 603.763 133.806 603.979 134.959C605.207 133.933 606.6 133.05 607.639 131.859C619.856 117.863 640.788 122.062 648.715 135.097C649.05 135.649 649.503 136.129 650.139 136.948C655.242 130.587 660.661 125.258 669.08 123.576C682.244 120.948 698.118 130.823 698.797 144.069C699.69 161.478 699.016 178.967 699.016 196.762C694.091 196.762 689.355 196.762 683.967 196.762C683.967 191.473 683.968 186.207 683.967 180.941C683.964 171.448 683.843 161.953 683.999 152.463C684.096 146.598 682.923 141.544 677.261 138.586C671.453 135.551 665.859 136.688 660.797 140.124C655.742 143.554 652.342 147.697 652.677 154.827C653.326 168.602 652.867 182.43 652.867 196.672C647.57 196.672 642.546 196.672 636.984 196.672C636.984 185.858 636.985 175.083 636.984 164.309C636.984 159.646 636.999 154.983 636.98 150.319C636.941 140.7 628.992 134.556 619.793 137.608C616.171 138.809 613.093 141.651 609.134 144.021C607.753 145.346 607.005 146.395 606.258 147.444Z" fill="#3F8497"/>
<path d="M767.387 236.385C773.063 227.107 781.172 224.423 791.175 226.117C792.302 226.308 793.489 226.143 794.685 226.143C789.447 249.19 738.086 281.509 703.734 285.166C644.278 291.498 598.458 256.558 582.025 226.169C587.873 226.169 593.478 225.926 599.037 226.323C600.625 226.437 602.375 228.162 603.554 229.566C620.595 249.854 642.033 263.156 668.056 267.716C706.178 274.396 739.413 263.903 767.387 236.385Z" fill="#282828"/>
<path d="M144.238 170.321C141.572 178.39 138.936 186.053 136.601 193.807C135.842 196.329 134.692 197.109 132.087 197.169C120.046 197.445 119.993 197.549 116.611 186.139C112.903 173.63 109.312 161.087 105.307 147.311C102.353 157.4 99.6962 166.374 97.1027 175.367C95.3629 181.399 93.645 187.44 92.054 193.512C91.3712 196.119 90.1399 197.16 87.2492 197.188C75.2593 197.303 75.2505 197.42 71.444 186.008C65.3196 167.647 59.2035 149.282 53.1059 130.912C52.644 129.52 52.3568 128.071 51.7835 125.857C56.8929 125.857 61.635 125.668 66.3389 126.007C67.3558 126.08 68.7275 127.908 69.103 129.175C73.1424 142.802 77.0065 156.481 80.9458 170.138C81.3332 171.481 81.9013 172.772 82.3856 174.087C82.8874 174.122 83.3892 174.156 83.8911 174.191C85.5902 168.829 87.3831 163.495 88.9681 158.1C91.8091 148.429 94.4145 138.686 97.4197 129.068C97.8412 127.719 99.908 126.067 101.311 125.97C112.856 125.173 112.861 125.275 116.122 136.492C119.767 149.026 123.413 161.561 127.077 174.09C127.299 174.852 127.687 175.565 128.463 177.4C133.274 159.649 137.804 142.935 142.377 126.064C147.848 126.064 153.128 126.064 158.994 126.064C154.058 140.892 149.222 155.422 144.238 170.321Z" fill="#3F8497"/>
<path d="M316.98 92.0057C310.245 93.0306 306.2 90.5604 301.78 85.7116C282.411 64.4627 258.319 52.1344 229.332 49.9182C192.381 47.0929 161.819 59.9941 137.213 87.3209C134.024 90.8617 130.909 92.5381 126.203 92.0835C122.273 91.7038 118.277 92.0056 113.214 92.0056C135.97 58.5888 166.224 38.3201 205.656 34.2096C257.07 28.85 297.001 49.4315 327.497 92.0057C323.32 92.0057 320.387 92.0057 316.98 92.0057Z" fill="#282828"/>
<path d="M775.634 126.14C791.206 133.858 797.262 147.146 796.76 163.063C796.268 178.669 789.468 191.272 773.867 197.311C761.285 202.181 750.172 199.393 739.518 189.254C739.518 196.679 739.518 202.877 739.518 209.076C739.518 215.207 739.518 221.339 739.518 227.757C734.276 227.757 729.509 227.757 723.872 227.757C723.872 194.002 723.872 160.178 723.872 126.096C727.702 126.096 731.975 126.096 736.76 126.096C737.27 128.491 737.806 131.002 738.47 134.116C749.087 123.339 761.294 120.295 775.634 126.14ZM745.233 141.623C742.634 144.028 739.144 145.628 739.266 150.15C739.472 157.786 739.269 165.432 739.342 173.072C739.354 174.336 739.488 175.999 740.265 176.793C746.587 183.251 754.137 187.381 763.385 185.761C772.021 184.248 776.368 177.781 778.779 169.879C779.256 168.315 779.318 166.608 779.448 164.957C780.198 155.429 778.482 146.547 770.455 140.506C762.348 134.405 753.926 136.429 745.233 141.623Z" fill="#3F8497"/>
<path d="M173.48 177.36C167.814 161.012 169.203 146.117 181.659 133.807C192.856 122.739 206.723 120.568 221.268 125.278C235.544 129.9 243.985 140.179 246.199 155.231C249.248 175.953 238.067 193.603 218.424 198.43C200.169 202.916 181.236 195.308 173.48 177.36ZM187.036 168.188C187.676 170.056 188.184 171.983 188.978 173.784C192.611 182.025 199.151 186.533 207.975 186.75C216.543 186.961 223.485 183.144 227.507 175.327C231.912 166.767 232.32 157.914 228.228 149.026C224.276 140.443 217.44 136.015 208.135 136.141C199.006 136.265 191.877 140.681 189.086 149.441C187.295 155.064 187.615 161.36 187.036 168.188Z" fill="#3F8497"/>
<path d="M510.079 153.858C523.358 156.434 529.57 162.94 530.107 173.411C530.811 187.142 522.325 195.733 508.898 198.63C492.221 202.23 476.674 198.822 462.301 189.78C461.899 189.528 461.633 189.062 461.07 188.436C462.884 184.874 464.731 181.247 466.233 178.299C474.372 181.141 481.957 184.728 489.937 186.257C495.532 187.329 501.752 186.058 507.528 184.961C511.863 184.138 514.979 180.853 514.795 176.088C514.6 171.061 510.577 168.99 506.374 168.308C499.513 167.196 492.54 166.783 485.621 166.015C483.317 165.759 480.989 165.496 478.75 164.93C469.206 162.52 463.81 156.619 463.048 147.953C462.184 138.11 466.958 129.603 476.103 126.071C493.153 119.486 509.179 123.882 525.48 131.063C523.492 135.235 521.74 138.91 520.055 142.447C513.266 140.415 506.796 137.794 500.078 136.693C495.007 135.862 489.542 136.525 484.397 137.387C481.046 137.948 477.829 140.702 479.036 144.476C479.836 146.981 482.649 150.049 485.073 150.595C491.494 152.042 498.195 152.235 504.78 152.974C506.416 153.157 508.032 153.516 510.079 153.858Z" fill="#3F8497"/>
<path d="M333.048 125.838C336.174 125.838 338.815 125.838 341.903 125.838C341.903 135.751 341.903 145.323 341.903 155.882C343.595 154.526 344.609 153.845 345.467 153.005C353.679 144.969 361.745 136.778 370.15 128.951C371.968 127.259 374.918 126.215 377.449 125.979C382.383 125.521 387.39 125.845 393.917 125.845C384.027 134.947 375.084 143.177 365.866 151.661C376.5 166.567 387.07 181.381 398.264 197.071C391.786 197.071 386.087 197.29 380.428 196.913C379.059 196.822 377.546 194.961 376.565 193.582C369.179 183.202 361.909 172.739 354.621 162.329C354.25 162.526 354.1 162.599 353.957 162.684C344.271 168.468 340.166 176.777 342.128 188.067C342.601 190.786 342.198 193.658 342.198 196.774C337.063 196.774 332.33 196.774 327.28 196.774C327.28 173.305 327.28 149.91 327.28 125.838C329.05 125.838 330.807 125.838 333.048 125.838Z" fill="#3F8497"/>
<path d="M859.953 125.842C866.119 124.704 868.859 127.217 870.892 132.602C876.263 146.824 882.321 160.786 888.531 175.888C889.73 173.407 890.521 171.866 891.23 170.289C897.34 156.686 903.505 143.108 909.473 129.443C910.635 126.784 912.009 125.555 915.01 125.777C918.611 126.044 922.246 125.84 926.559 125.84C925.787 127.829 925.354 129.197 924.743 130.479C909.986 161.428 895.148 192.338 880.523 223.349C878.877 226.841 877.121 228.573 873.107 228.11C869.717 227.719 866.246 228.029 862.136 228.029C867.302 217.787 871.949 208.072 877.083 198.621C879.391 194.372 879.856 190.876 877.687 186.263C869.091 167.989 860.961 149.496 852.674 131.077C852.013 129.609 851.471 128.086 850.576 125.841C853.954 125.841 856.716 125.841 859.953 125.842Z" fill="#3F8497"/>
<path d="M302.808 122.999C306.044 123.819 308.857 124.624 312.14 125.563C310.459 130.768 308.972 135.368 307.312 140.507C297.293 135.889 290.017 139.305 284.734 147.86C283.681 149.565 282.955 151.773 282.929 153.76C282.763 166.4 282.844 179.043 282.822 191.685C282.819 193.305 282.689 194.926 282.607 196.82C277.398 196.82 272.508 196.82 266.773 196.82C266.773 173.221 266.773 149.863 266.773 126.166C270.449 126.166 274.854 126.166 279.613 126.166C280.202 129.461 280.794 132.771 281.49 136.66C286.612 128.789 292.811 123.184 302.808 122.999Z" fill="#3F8497"/>
<path d="M549.269 162C549.269 149.863 549.269 138.227 549.269 126.152C554.597 126.152 559.63 126.152 564.855 126.152C564.855 149.594 564.855 173.013 564.855 196.774C559.795 196.774 554.892 196.774 549.269 196.774C549.269 185.35 549.269 173.925 549.269 162Z" fill="#3F8497"/>
<path d="M442.743 152.059C443.646 156.816 444.073 161.509 444.541 166.643C431.456 166.643 418.968 166.643 406.227 166.643C406.227 161.972 406.227 157.376 406.227 151.995C418.186 151.995 430.227 151.995 442.743 152.059Z" fill="#3F8497"/>
<path d="M817.952 140C817.952 124.347 817.952 109.195 817.952 93.6382C822.954 93.6382 827.692 93.6382 832.899 93.6382C832.899 127.889 832.899 162.246 832.899 196.862C828.152 196.862 823.389 196.862 817.952 196.862C817.952 178.018 817.952 159.259 817.952 140ZM832.005 116.5C832.004 111.006 831.818 105.503 832.063 100.019C832.245 95.9513 830.475 94.7522 826.704 94.9416C822.97 95.1291 819.003 94.5359 819.004 100.135C819.013 130.105 818.96 160.076 819.055 190.047C819.073 195.585 820.063 195.847 826.755 196.099C831.637 196.282 832.071 193.801 832.055 189.929C831.952 165.787 832.004 141.643 832.005 116.5Z" fill="#3F8497"/>
<path d="M590.453 193.295C592.793 195.601 600.754 197.521 603.309 195.519C604.43 194.641 604.942 192.414 604.96 190.791C605.093 178.53 605.017 166.267 605.052 154.005C605.058 152.204 605.307 150.404 605.736 148.308C606.028 164.272 606.028 180.533 606.028 197.304C601.438 197.304 597.133 197.52 592.882 197.139C591.926 197.053 591.156 194.883 590.453 193.295Z" fill="#3F8497"/>
<path d="M603.033 127.596C602.668 127.938 602.338 127.908 602.025 127.818C592.393 125.064 591.03 126.06 590.966 135.875C590.961 136.686 590.833 137.496 590.53 138.638C589.82 134.726 589.343 130.483 588.711 124.869C593.955 125.718 598.516 126.457 603.033 127.596Z" fill="#3F8497"/>
<path d="M606.541 147.285C607.005 146.395 607.753 145.346 608.844 144.186C608.4 145.092 607.612 146.109 606.541 147.285Z" fill="#3F8497"/>
<path d="M604.039 134.565C603.763 133.806 603.546 132.653 603.539 131.257C603.866 132.067 603.982 133.119 604.039 134.565Z" fill="#3F8497"/>
<path d="M603.255 128.68C603.042 128.668 602.972 128.497 602.978 128.163C603.209 128.133 603.324 128.307 603.255 128.68Z" fill="#3F8497"/>
<path d="M832.005 117C832.004 141.643 831.952 165.787 832.055 189.929C832.071 193.801 831.637 196.282 826.754 196.099C820.063 195.847 819.073 195.585 819.055 190.047C818.96 160.076 819.013 130.105 819.004 100.135C819.003 94.5359 822.97 95.1291 826.704 94.9416C830.475 94.7522 832.244 95.9513 832.063 100.019C831.818 105.503 832.004 111.006 832.005 117Z" fill="#3F8497"/>
</g>
<defs>
<clipPath id="clip0_2_2">
<rect width="966" height="305" fill="white"/>
</clipPath>
</defs>
</svg>
